<?xml version="1.0" encoding="UTF-8" standalone="no"?>
<!-- Created with Inkscape (http://www.inkscape.org/) -->

<svg
   width="210mm"
   height="297mm"
   viewBox="0 0 210 297"
   version="1.1"
   id="svg5"
   xml:space="preserve"
   inkscape:version="1.2.2 (b0a8486541, 2022-12-01)"
   sodipodi:docname="logo.svg"
   xmlns:inkscape="http://www.inkscape.org/namespaces/inkscape"
   xmlns:sodipodi="http://sodipodi.sourceforge.net/DTD/sodipodi-0.dtd"
   xmlns="http://www.w3.org/2000/svg"
   xmlns:svg="http://www.w3.org/2000/svg"><sodipodi:namedview
     id="namedview7"
     pagecolor="#505050"
     bordercolor="#ffffff"
     borderopacity="1"
     inkscape:showpageshadow="0"
     inkscape:pageopacity="0"
     inkscape:pagecheckerboard="1"
     inkscape:deskcolor="#505050"
     inkscape:document-units="mm"
     showgrid="false"
     inkscape:zoom="1.161167"
     inkscape:cx="384.09634"
     inkscape:cy="616.62104"
     inkscape:window-width="1517"
     inkscape:window-height="815"
     inkscape:window-x="0"
     inkscape:window-y="0"
     inkscape:window-maximized="1"
     inkscape:current-layer="layer1" /><defs
     id="defs2"><inkscape:path-effect
       effect="bspline"
       id="path-effect1417"
       is_visible="true"
       lpeversion="1"
       weight="33.333333"
       steps="2"
       helper_size="0"
       apply_no_weight="true"
       apply_with_weight="true"
       only_selected="false" /><inkscape:path-effect
       effect="bspline"
       id="path-effect1413"
       is_visible="true"
       lpeversion="1"
       weight="33.333333"
       steps="2"
       helper_size="0"
       apply_no_weight="true"
       apply_with_weight="true"
       only_selected="false" /><inkscape:path-effect
       effect="bspline"
       id="path-effect1403"
       is_visible="true"
       lpeversion="1"
       weight="33.333333"
       steps="2"
       helper_size="0"
       apply_no_weight="true"
       apply_with_weight="true"
       only_selected="false" /><inkscape:path-effect
       effect="bspline"
       id="path-effect1399"
       is_visible="true"
       lpeversion="1"
       weight="33.333333"
       steps="2"
       helper_size="0"
       apply_no_weight="true"
       apply_with_weight="true"
       only_selected="false" /><inkscape:path-effect
       effect="bspline"
       id="path-effect708"
       is_visible="true"
       lpeversion="1"
       weight="33.333333"
       steps="2"
       helper_size="0"
       apply_no_weight="true"
       apply_with_weight="true"
       only_selected="false" /><inkscape:path-effect
       effect="bspline"
       id="path-effect704"
       is_visible="true"
       lpeversion="1"
       weight="33.333333"
       steps="2"
       helper_size="0"
       apply_no_weight="true"
       apply_with_weight="true"
       only_selected="false" /><inkscape:path-effect
       effect="bspline"
       id="path-effect700"
       is_visible="true"
       lpeversion="1"
       weight="33.333333"
       steps="2"
       helper_size="0"
       apply_no_weight="true"
       apply_with_weight="true"
       only_selected="false" /></defs><g
     inkscape:label="Layer 1"
     inkscape:groupmode="layer"
     id="layer1"><g
       id="g1409"
       transform="matrix(1,0,0,-1,-2.0945762,266.10507)"
       style="display:none"><path
         style="fill:#000000;stroke-width:0.265887"
         d="M -16.8271,107.77878 C 4.7367267,85.262092 26.300128,62.745849 46.968164,48.188601 67.6362,33.631353 87.407051,27.034326 107.24318,27.075591 c 19.83612,0.04127 39.73577,6.720396 59.7215,21.450155 19.98573,14.72976 40.05561,37.508664 60.12564,60.287744"
         id="path1405"
         inkscape:path-effect="#path-effect1413"
         inkscape:original-d="M -16.8271,107.77878 C 4.7369969,85.262351 26.300398,62.746107 47.864399,40.228697 67.636306,33.63167 87.407157,27.034643 107.17814,20.437219 c 19.90111,6.679798 39.80076,13.358928 59.70135,20.038195 20.07094,22.780077 40.14082,45.558977 60.21083,68.338076"
         sodipodi:nodetypes="ccccc" /><path
         style="fill:#ffffff;fill-opacity:1;stroke-width:0.264583"
         d="M -2.0328977,107.72969 C 11.497078,93.029909 25.026798,78.330406 43.073837,64.507449 61.120876,50.684492 83.683239,37.739507 105.98252,37.321073 c 22.29929,-0.418435 44.33257,11.689506 62.09106,25.634806 17.75849,13.945301 31.24036,29.72647 44.72228,45.507681"
         id="path1407"
         inkscape:path-effect="#path-effect1417"
         inkscape:original-d="M -2.0328977,107.72969 C 11.497353,93.030162 25.027073,78.330659 38.557068,63.630305 61.121056,50.684805 83.683419,37.739821 106.24688,24.79379 c 22.03488,12.108939 44.06816,24.21688 66.10251,36.32529 13.4827,15.782079 26.96458,31.563247 40.44647,47.34448"
         sodipodi:nodetypes="ccccc" /></g><g
       id="g1422"
       transform="matrix(0.8294761,0,0,1,17.380728,75.812527)"
       inkscape:export-filename="g1422.svg"
       inkscape:export-xdpi="96"
       inkscape:export-ydpi="96"><g
         id="g1389"><path
           id="path702"
           style="fill:#000000;stroke-width:0.265887"
           d="M 107.3565,33.389336 C 87.520837,33.348071 69.209838,39.431522 48.542303,53.988396 27.874791,68.545293 12.627889,86.494434 -8.9353894,109.01055 c 0.8156511,0.102 -1.2615356,0.22517 3.2994034,0.17606 C 7.8936606,94.487241 26.402802,74.58213 44.449391,60.759498 62.49598,46.93689 83.73065,36.268711 105.80065,36.19459 c 5.97524,-0.02007 5.10891,0.146036 5.80512,0.157096 21.362,2.356268 45.63162,19.141165 62.8349,32.650326 17.75125,13.939657 26.64338,24.631973 40.1178,40.404238 -5.28807,0.0495 8.85086,-0.0556 3.87675,-0.0343 C 198.36804,86.593461 189.75624,75.662611 169.77101,60.933226 149.78578,46.203817 127.19212,33.430606 107.3565,33.389336 Z"
           sodipodi:nodetypes="scccssccccss" /></g></g><g
       id="g291"
       transform="matrix(-0.82946926,0.00351647,-0.00389206,-0.99999175,194.7259,215.69115)"><g
         id="g289"
         transform="matrix(0.99575531,0,0,1,3.9898218,0)"><path
           id="path287"
           style="fill:#000000;stroke-width:0.265887"
           d="M 219.0161,108.78549 C 198.94633,86.006694 168.31651,58.016995 152.18336,48.796231 130.26833,36.270941 121.80217,34.339471 105.77682,33.910322 81.19595,33.25206 53.142794,52.717081 43.872294,59.545046 30.227671,69.594659 14.044006,85.29499 -7.5195351,107.81139 l 5.5382444,0.024 c 0.010536,-0.037 0.028545,-0.0724 0.053677,-0.10523 l -0.1051094,-3.7e-4 C 11.497071,93.030256 25.027262,78.330414 43.074067,64.507638 61.120872,50.684862 83.683978,37.739519 105.98295,37.321096 c 0.69685,-0.01308 1.39289,-0.0143 2.0891,-0.003 21.58227,0.342949 42.21969,13.284421 59.42297,26.79375 17.75835,13.945119 31.81923,28.570609 45.30102,44.351644 l -0.13827,-4.9e-4 c 0.055,0.0945 0.0722,0.19635 0.0512,0.29526 z m -77.6867,-0.36401 -6.2e-4,-0.001 c 0.008,3e-5 0.0179,-9.3e-4 0.0232,-9.5e-4 0.003,-4e-4 0.008,2.4e-4 0.0113,4e-5 -0.003,-2.9e-4 -0.006,-10e-4 -0.009,-10e-4 -0.0112,-3.3e-4 -0.0243,-0.006 -0.0338,-0.001 -0.005,0.002 -1e-4,0.004 0.009,0.004 z"
           sodipodi:nodetypes="ccssccccsscccccccccccccc" /></g></g><path
       style="fill:#000000;stroke-width:0.18911"
       d="m 102.63141,177.68099 c -2.38498,-1.1646 -2.38815,-4.43421 -0.006,-5.73231 0.34166,-0.18615 0.3591,-0.59363 0.3858,-9.0157 0.0154,-4.8514 -0.0178,-9.61553 -0.0738,-10.58694 l -0.10173,-1.76621 -3.454725,3.52401 -3.454718,3.524 0.593978,0.52353 c 0.54905,0.48395 0.599497,0.63155 0.667084,1.95179 l 0.07311,1.42825 h 1.421857 c 1.317654,0 1.462654,0.0403 1.978414,0.54904 0.52929,0.52212 0.55657,0.62859 0.55657,2.17235 0,0.89283 -0.0882,1.78594 -0.19605,1.98469 -0.32829,0.60512 -1.218689,0.92873 -2.555342,0.92873 h -1.247073 v 1.23886 c 0,1.37723 -0.343444,2.16718 -1.087638,2.50168 -0.249424,0.11211 -1.096331,0.20383 -1.882019,0.20383 -2.35214,0 -2.932826,-0.54099 -2.932826,-2.73233 v -1.21204 h -1.442631 c -1.340653,0 -1.482025,-0.0388 -1.999225,-0.54903 -0.534082,-0.52685 -0.556564,-0.61848 -0.556564,-2.26837 0,-1.64989 0.02245,-1.74152 0.556564,-2.26837 0.5172,-0.51021 0.658572,-0.54904 1.999225,-0.54904 h 1.442669 l 7.2e-4,-1.26783 c 7.2e-4,-1.59271 0.414667,-2.3513 1.46017,-2.677 0.560975,-0.17475 1.813647,-1.29235 5.441213,-4.85449 l 4.712427,-4.62749 v -1.49506 -1.49506 l -2.53863,2.47974 -2.538629,2.47975 -4.077869,0.006 c -2.905041,0.004 -4.164758,0.0718 -4.379971,0.23478 -0.599828,0.45431 -0.745115,1.05417 -0.74618,3.08083 -5.68e-4,1.11732 -0.08716,2.33726 -0.192386,2.71098 -0.520417,1.84817 -1.888662,2.81098 -4.167608,2.93267 -2.736532,0.14613 -3.064648,0.53845 -3.064648,3.66434 v 1.93551 l 0.693042,0.36785 c 1.06135,0.56385 1.643834,1.56858 1.632471,2.81584 -0.01785,1.95919 -1.419158,3.22036 -3.398291,3.05845 -1.711588,-0.14001 -2.742217,-1.15975 -2.884654,-2.85419 -0.07255,-0.86295 -0.0072,-1.16696 0.398137,-1.84907 0.266724,-0.44898 0.784924,-0.97568 1.151548,-1.17045 l 0.666596,-0.35413 0.06138,-2.56185 c 0.05671,-2.36783 0.09717,-2.61332 0.534097,-3.24156 0.746288,-1.07303 1.644476,-1.46194 3.722465,-1.61184 1.622944,-0.11707 1.855363,-0.18157 2.326392,-0.64564 0.510658,-0.50311 0.525641,-0.5802 0.619639,-3.1885 0.110514,-3.06639 0.304009,-3.58717 1.69005,-4.54859 l 0.816099,-0.56608 4.072573,-0.0939 4.072573,-0.0939 2.739014,-2.68495 2.739,-2.68496 0.11369,-1.33773 c 0.0625,-0.73575 0.0696,-1.40813 0.0157,-1.49419 -0.0539,-0.0861 -0.73558,-0.15646 -1.51482,-0.15646 h -1.41678 l -0.002,0.89218 c -0.005,2.0328 -0.121098,2.27071 -1.97458,4.03828 l -1.723369,1.64348 h -3.805028 -3.80497 l -4.341147,4.26765 c -2.881668,2.83289 -4.341154,4.39893 -4.341154,4.65811 0,0.82822 -0.112184,0.84124 -7.250067,0.84124 -5.527036,0 -6.833544,-0.0481 -7.010084,-0.2579 -0.287716,-0.34199 -0.303203,-3.35238 -0.01993,-3.87451 0.229664,-0.42333 1.252434,-0.93891 1.862524,-0.93891 0.214559,0 0.475793,-0.2568 0.670064,-0.65868 0.444007,-0.91849 1.331126,-1.40585 2.560561,-1.40672 l 0.99962,-7e-4 v -1.01026 c 0,-0.94577 -0.03649,-1.02519 -0.572087,-1.24403 -1.260745,-0.51515 -2.266756,-2.33884 -2.010833,-3.64521 0.34428,-1.75739 1.738798,-2.91992 3.509007,-2.92528 1.287884,-0.004 2.254962,0.5071 2.959561,1.56379 0.460291,0.69031 0.513091,0.92508 0.454851,2.02256 -0.05376,1.01365 -0.164623,1.3693 -0.603693,1.93716 -0.29579,0.38257 -0.829175,0.83264 -1.185292,1.00016 -0.616437,0.28998 -0.647489,0.35247 -0.647489,1.30284 v 0.99827 l 0.904412,3.7e-4 c 1.196181,3.8e-4 2.147981,0.49268 2.614576,1.35231 0.301303,0.5551 0.51969,0.71892 1.083709,0.81292 0.388501,0.0647 0.927247,0.33561 1.19721,0.60192 l 0.490832,0.4842 0.505988,-0.4519 c 0.278296,-0.24854 1.94924,-1.85616 3.71321,-3.57247 l 3.207222,-3.12057 -3.727768,-3.6412 c -2.050276,-2.00266 -3.901754,-3.91671 -4.114405,-4.25344 -0.327124,-0.51802 -0.396223,-0.99434 -0.449001,-3.09513 -0.06074,-2.41615 -0.07589,-2.49435 -0.56517,-2.90951 -0.431852,-0.36653 -0.716862,-0.42671 -2.020102,-0.42671 -1.397238,0 -1.5305,0.0334 -1.683846,0.42261 -0.468258,1.18834 -2.10435,1.9622 -3.494536,1.65291 -1.055031,-0.23473 -1.566287,-0.63738 -2.043144,-1.60912 -1.080017,-2.20084 0.752951,-4.67704 3.198104,-4.32042 0.741517,0.10815 1.054067,0.29082 1.802125,1.0533 l 0.905024,0.92244 h 1.532069 c 2.0833,0 3.086821,0.50403 3.818248,1.91775 0.29492,0.57002 0.36055,1.10994 0.36055,2.96632 v 2.26945 l 0.882867,0.93109 c 0.485572,0.5121 0.956823,0.93109 1.047209,0.93109 0.09039,0 0.16435,-2.52151 0.16435,-5.60334 v -5.60334 l -0.7056,-0.45408 c -0.945324,-0.60835 -1.462826,-1.53039 -1.458925,-2.59937 0.0065,-1.69054 1.103693,-2.84828 2.813489,-2.96787 1.862949,-0.1303 3.226659,1.15894 3.244895,3.06771 0.01087,1.13395 -0.371964,1.77909 -1.484285,2.50153 l -0.702225,0.45608 0.01612,6.58424 0.01612,6.58424 2.405235,2.39798 2.405242,2.39799 h 2.965756 2.965757 l 1.280111,-1.27255 1.280111,-1.27254 v -1.15535 -1.15535 l -2.747636,-0.0608 c -2.421571,-0.0536 -2.811345,-0.10699 -3.284446,-0.44982 -1.231737,-0.89259 -1.202599,-0.59902 -1.202931,-12.12067 l -2.87e-4,-10.44358 0.435514,-0.63821 c 0.836738,-1.22617 0.584248,-1.19768 10.988657,-1.24032 5.40586,-0.0221 9.71262,0.0366 10.09957,0.13765 0.48471,0.12665 1.22179,0.72477 2.61804,2.12446 l 1.94339,1.94817 -3.8e-4,9.2777 c -3.8e-4,10.22862 0.017,10.07076 -1.20292,10.9548 -0.47311,0.34283 -0.86289,0.39622 -3.28445,0.44982 l -2.74755,0.0608 v 1.1651 1.1651 l 1.29,1.26279 1.29,1.2628 h 2.9492 2.94922 l 2.42488,-2.3974 2.42488,-2.39741 v -6.62294 -6.62294 l -0.4284,-0.1611 c -0.65099,-0.24479 -1.43124,-1.10002 -1.67887,-1.84017 -0.86564,-2.58746 1.89932,-4.87876 4.38051,-3.63008 2.07984,1.0467 2.16066,3.953 0.146,5.24951 l -0.70561,0.45408 v 5.60334 c 0,3.08183 0.0679,5.60334 0.15076,5.60334 0.0829,0 0.53275,-0.38361 0.99962,-0.85246 l 0.84885,-0.85247 0.0952,-2.59058 c 0.0912,-2.48131 0.11776,-2.61973 0.62984,-3.28147 0.84259,-1.08882 1.73337,-1.43747 3.69425,-1.44595 l 1.6736,-0.007 0.3808,-0.6032 c 0.42105,-0.66695 1.8079,-1.44843 2.57044,-1.44843 0.76632,0 2.14295,0.78049 2.6165,1.48343 0.50998,0.75702 0.58046,2.19247 0.14815,3.01716 -1.09097,2.08115 -4.3889,2.10937 -5.4192,0.0464 -0.29646,-0.59361 -0.29787,-0.59406 -1.84642,-0.59832 -2.35343,-0.006 -2.42114,0.0787 -2.55766,3.21884 -0.0634,1.4581 -0.21115,2.70192 -0.35344,2.97518 -0.13449,0.25827 -1.96993,2.18139 -4.07875,4.27362 l -3.83424,3.80405 3.65249,3.60308 3.65249,3.60308 0.3527,-0.42968 c 0.19498,-0.23753 0.75616,-0.53072 1.25501,-0.65566 0.73445,-0.18397 0.96322,-0.34639 1.2297,-0.87309 0.4215,-0.83305 1.38159,-1.30381 2.65984,-1.30418 l 0.99961,-2.9e-4 v -0.93532 c 0,-0.89169 -0.0333,-0.95209 -0.71401,-1.2948 -2.1767,-1.09591 -2.62229,-3.79392 -0.92974,-5.6295 0.95141,-1.03182 2.73238,-1.29042 4.11053,-0.59685 1.39334,0.7012 2.18781,2.48929 1.74857,3.93547 -0.28243,0.92991 -1.14884,1.94767 -1.92964,2.26671 -0.53556,0.21884 -0.57209,0.29826 -0.57209,1.24402 v 1.01027 h 1.11426 c 1.35868,0 2.31349,0.53805 2.59038,1.45969 0.13185,0.43888 0.29495,0.60641 0.5904,0.60641 0.78434,0 1.61994,0.41812 1.89884,0.95016 0.34981,0.6673 0.38797,3.56369 0.0513,3.89577 -0.29524,0.29124 -13.50841,0.3244 -14.05604,0.0353 -0.19806,-0.10456 -0.414,-0.47357 -0.47989,-0.82002 -0.0959,-0.50433 -0.94705,-1.44292 -4.26887,-4.70746 l -4.14909,-4.07755 -3.40302,0.0292 c -1.87167,0.0161 -3.6485,0.0224 -3.94851,0.0141 -0.41168,-0.0114 -0.91964,-0.37216 -2.07111,-1.47081 -0.8391,-0.80061 -1.64324,-1.72764 -1.78696,-2.06006 -0.14372,-0.33243 -0.26132,-1.15652 -0.26132,-1.83131 v -1.22691 h -1.52317 -1.52322 v 1.34808 1.34809 l 2.87972,2.86219 2.87972,2.86217 4.02238,0.0628 c 4.00856,0.0626 4.02548,0.0646 4.9271,0.58742 1.37277,0.79603 1.60601,1.40748 1.69855,4.45279 0.1035,3.40617 0.35726,3.77024 2.7998,4.0168 1.83967,0.18571 2.98872,1.09321 3.4476,2.72287 0.10523,0.37373 0.19181,1.56988 0.19239,2.65813 l 10e-4,1.97865 0.56851,0.33129 c 0.31269,0.18221 0.80392,0.63575 1.09165,1.00786 0.42684,0.55204 0.52313,0.87045 0.52313,1.72987 0,1.30767 -0.48701,2.1989 -1.5275,2.79532 -0.9951,0.57041 -2.57812,0.50733 -3.49887,-0.13943 -0.70625,-0.4961 -1.33531,-1.69265 -1.3416,-2.55193 -0.006,-0.8674 0.75934,-2.18744 1.56664,-2.70084 l 0.71401,-0.45409 v -2.04395 c 0,-2.78557 -0.45133,-3.52604 -2.15099,-3.52897 -1.61917,-0.003 -3.13066,-0.94123 -3.7772,-2.34517 -0.27165,-0.58987 -0.34764,-1.23287 -0.35092,-2.96922 -0.004,-2.34176 -0.2145,-3.12085 -0.94565,-3.50685 -0.2163,-0.11415 -1.92681,-0.1934 -4.17457,-0.1934 -2.0945,0 -4.00654,-0.0802 -4.24898,-0.17811 -0.24244,-0.0979 -1.51181,-1.18858 -2.82083,-2.42363 l -2.38004,-2.24552 -0.055,1.69661 -0.0551,1.6966 1.28588,1.33746 c 5.43401,5.65201 7.34822,7.46993 7.75862,7.36832 0.65336,-0.16177 1.7668,0.22503 2.19554,0.76272 0.31228,0.39163 0.38947,0.76258 0.38947,1.8718 v 1.38337 h 1.34227 c 2.31107,0 3.03768,0.72897 3.03628,3.04615 -7.2e-4,1.35279 -0.45493,2.29537 -1.24939,2.59334 -0.26857,0.10073 -1.02729,0.18314 -1.68605,0.18314 h -1.19774 l -0.11138,1.45567 c -0.1012,1.32255 -0.16492,1.50288 -0.6969,1.97217 -0.54749,0.48299 -0.69756,0.51653 -2.31078,0.51653 -1.653,0 -1.74858,-0.023 -2.28182,-0.54903 -0.51722,-0.51021 -0.55657,-0.64966 -0.55657,-1.97219 v -1.42315 h -1.25644 c -1.45287,0 -2.39942,-0.36631 -2.71563,-1.05093 -0.33224,-0.71933 -0.27781,-3.28739 0.0804,-3.79185 0.48228,-0.67924 1.29363,-0.97985 2.64462,-0.97985 h 1.24708 v -1.2302 c 0,-0.74168 0.11673,-1.45289 0.29395,-1.79095 l 0.29394,-0.56075 -3.24204,-3.23342 -3.24205,-3.23343 -0.003,10.18479 -0.003,10.1848 0.54853,0.27981 c 1.32794,0.67742 2.10634,2.31856 1.73863,3.66565 -0.55497,2.03315 -2.61931,2.98512 -4.49113,2.0711 z m 2.32606,-1.97809 c 0.56341,-0.5558 0.50368,-1.27514 -0.15131,-1.82186 -0.84355,-0.70414 -2.06522,-0.12083 -2.06522,0.98609 0,1.2124 1.32737,1.7129 2.21653,0.83577 z m -9.451837,-7.87928 c 0,-2.17518 0.175698,-2.34784 2.389122,-2.34784 h 1.627507 l -0.05671,-1.17392 -0.05671,-1.17392 -1.612682,-0.0552 c -2.150859,-0.0736 -2.260653,-0.18049 -2.331098,-2.26845 l -0.05469,-1.6207 h -1.142416 -1.142417 l -0.0952,1.72887 c -0.05239,0.95087 -0.181527,1.81364 -0.28704,1.91725 -0.105505,0.10361 -0.962321,0.2131 -1.904025,0.24332 l -1.712193,0.0549 -0.05671,1.17392 -0.05671,1.17392 h 1.627506 c 2.213424,0 2.389123,0.17266 2.389123,2.34784 v 1.59653 h 1.237616 1.237617 z m -1.570821,0.83017 c -0.452685,-0.26009 -0.420366,-0.86486 0.0598,-1.11834 0.702333,-0.37079 1.28625,0.52871 0.711364,1.09582 -0.272834,0.26914 -0.338572,0.27106 -0.771136,0.0225 z m -4.195983,-3.85809 c -0.257038,-0.25356 -0.134902,-0.80973 0.218826,-0.99647 0.463472,-0.2447 1.045763,0.15743 0.949793,0.65592 -0.0706,0.36671 -0.897749,0.60776 -1.168619,0.34055 z m 7.92016,-0.19067 c -0.157513,-0.40492 0.180736,-0.91361 0.607485,-0.91361 0.186615,0 0.426541,0.13643 0.533161,0.30317 0.290883,0.45491 0.02202,0.91771 -0.533161,0.91771 -0.276116,0 -0.539847,-0.1334 -0.607485,-0.30727 z m -3.828898,-3.48684 c -0.568459,-0.56076 0.06203,-1.43863 0.766214,-1.06686 0.561278,0.29633 0.308269,1.29226 -0.328289,1.29226 -0.115191,0 -0.312256,-0.10143 -0.437925,-0.2254 z m 20.997299,6.65847 c 0.18323,-2.21245 0.27633,-2.30088 2.42275,-2.30088 h 1.69321 l -0.0567,-1.17392 -0.0567,-1.17392 -1.75258,-0.0939 c -1.06596,-0.0572 -1.8492,-0.18949 -1.99922,-0.33787 -0.15352,-0.15185 -0.27191,-0.88211 -0.31354,-1.93404 l -0.0669,-1.69007 -1.07554,0.0557 -1.07554,0.0558 -0.0952,1.61571 c -0.0557,0.94526 -0.20126,1.74132 -0.35078,1.91841 -0.19381,0.22954 -0.67699,0.31569 -1.99923,0.35647 l -1.74364,0.0537 v 1.12696 1.12696 l 1.65793,0.0542 c 1.52622,0.0498 1.68885,0.0929 2.04683,0.54185 0.30978,0.3885 0.38889,0.76275 0.38889,1.83977 0,0.74364 0.0571,1.40842 0.12694,1.47729 0.0698,0.0689 0.57376,0.12522 1.11989,0.12522 h 0.99296 z m -33.805217,1.18047 c 1.026304,-0.52354 0.871561,-2.04617 -0.244884,-2.40961 -0.429887,-0.13995 -0.644445,-0.10241 -1.027577,0.17976 -0.941208,0.6932 -0.872411,1.75514 0.146654,2.26379 0.582276,0.29063 0.483744,0.2936 1.125807,-0.0339 z m 46.745927,-0.33008 c 0.42634,-0.60045 0.36569,-1.22173 -0.17094,-1.75111 -0.59304,-0.585 -1.13791,-0.585 -1.73094,0 -0.91211,0.89978 -0.40574,2.16855 0.86547,2.16855 0.54887,0 0.81657,-0.10782 1.03641,-0.41744 z m -54.385833,-14.22012 5.009016,-0.0129 -0.05858,-0.79826 -0.05858,-0.79827 -5.453807,-0.0498 -5.453799,-0.0498 -0.08582,0.80112 c -0.107491,1.00339 -0.06772,1.0721 0.571892,0.98875 0.286328,-0.0373 2.774651,-0.0737 5.529613,-0.0808 z m 67.402573,-0.8112 -0.0586,-0.79827 -5.56928,-0.0498 -5.56928,-0.0498 v 0.84807 0.84806 h 5.62783 5.62783 z m -65.081089,-2.77045 c -0.382694,-0.24397 -5.654433,-0.24397 -5.807283,0 -0.07664,0.12233 0.965185,0.18682 2.987604,0.18495 2.075262,-0.002 3.010547,-0.0633 2.819679,-0.18495 z m 62.452109,0 c 0,-0.11714 -1.11069,-0.18783 -2.95125,-0.18783 -1.84056,0 -2.95124,0.0707 -2.95124,0.18783 0,0.11714 1.11068,0.18783 2.95124,0.18783 1.84056,0 2.95125,-0.0707 2.95125,-0.18783 z m -64.355551,-5.72902 c 1.110508,-0.5665 1.103175,-2.44188 -0.0118,-3.01064 -1.120497,-0.5716 -2.200917,-0.22917 -2.649774,0.8398 -0.678505,1.6159 1.025275,3.00554 2.661554,2.17084 z m 62.289751,0.0791 c 0.21143,-0.11162 0.5099,-0.49922 0.66327,-0.86133 0.76123,-1.79724 -1.2626,-3.27084 -2.77173,-2.01817 -1.59443,1.32347 0.25965,3.85557 2.10846,2.8795 z m -41.346036,-12.2999 c 0,-3.34967 0.07263,-5.31147 0.205729,-5.5568 0.463947,-0.85516 1.016301,-0.91088 9.028807,-0.91088 6.14749,0 7.65459,0.05 8.19343,0.27215 0.36317,0.14969 0.67842,0.2976 0.70056,0.3287 0.0222,0.0311 0.0864,2.50768 0.1428,5.50352 l 0.10254,5.44698 0.73269,0.0594 c 0.49318,0.04 0.85106,-0.0463 1.09481,-0.2639 0.34616,-0.30902 0.36213,-0.71413 0.36213,-9.18196 v -8.85868 l -1.70742,-1.64821 c -0.93909,-0.90651 -1.81733,-1.61223 -1.95163,-1.56825 -0.18251,0.0598 -0.27089,1.00128 -0.34983,3.72726 -0.0581,2.00603 -0.12235,3.66628 -0.1428,3.68945 -0.0204,0.0232 -0.2963,0.17432 -0.61301,0.33588 -0.4953,0.25267 -1.46657,0.28618 -6.94464,0.23961 -6.337143,-0.0539 -6.370966,-0.0563 -6.802278,-0.48151 -0.415839,-0.41 -0.435867,-0.57232 -0.492603,-3.99133 l -0.05915,-3.56394 h -1.374117 c -0.935522,0 -1.509184,0.0933 -1.797282,0.29239 l -0.423173,0.29239 v 10.09021 c 0,11.36862 -0.05455,10.92511 1.343612,10.92511 h 0.750814 z m 16.755446,0.19802 v -4.97957 l -7.56851,0.0491 -7.568511,0.0491 -0.05073,4.93045 -0.05073,4.93047 h 7.619281 7.61926 z m -13.185392,3.27408 c -0.443186,-0.25464 -0.423878,-0.863 0.03505,-1.10531 0.395373,-0.20873 10.601812,-0.28245 11.135512,-0.0804 0.17491,0.0662 0.30117,0.3334 0.30117,0.63731 0,0.3039 -0.12626,0.57108 -0.30117,0.63729 -0.52646,0.19929 -10.811483,0.11748 -11.170594,-0.0889 z m -0.132902,-2.88451 c -0.127468,-0.15151 -0.175677,-0.44981 -0.107124,-0.66288 0.122747,-0.38152 0.211931,-0.38664 5.870618,-0.33771 l 5.74597,0.0497 v 0.56348 0.56348 l -5.63884,0.0497 c -4.766427,0.042 -5.674718,0.007 -5.870624,-0.22577 z m -0.140307,-2.85194 c -0.06635,-0.17051 -0.03339,-0.44645 0.07315,-0.61319 0.169394,-0.26506 0.861486,-0.3098 5.504391,-0.35586 2.92084,-0.029 5.50881,-0.005 5.75103,0.0535 0.34712,0.0837 0.42779,0.21423 0.38081,0.61617 l -0.0596,0.50997 -5.76458,0.0497 c -5.210892,0.0449 -5.776178,0.02 -5.885195,-0.26031 z M 73.03811,130.7278 c 0.767193,-0.75682 0.257053,-2.0661 -0.805017,-2.0661 -0.770784,0 -1.289416,0.47793 -1.289416,1.18824 0,1.1418 1.282112,1.67918 2.094433,0.87786 z m 63.78492,0 c 0.78818,-0.77752 0.25569,-2.0661 -0.85378,-2.0661 -0.46792,0 -0.74962,0.13521 -1.03975,0.49908 -0.95415,1.19659 0.79863,2.64711 1.89353,1.56702 z m -52.046045,-6.09864 c 0.529383,-0.36578 0.640315,-0.86169 0.346791,-1.55033 -0.321136,-0.75343 -1.116711,-0.9614 -1.789942,-0.46788 -1.382925,1.01373 0.03238,2.993 1.443151,2.01821 z m 40.050675,-0.0997 c 0.55337,-0.54587 0.49291,-1.38836 -0.13456,-1.87525 -0.87592,-0.67967 -2.02334,-0.15526 -2.02334,0.92476 0,1.17134 1.33702,1.76027 2.1579,0.95049 z m -14.85142,-4.78958 v -3.28697 h -6.09288 -6.092894 v 3.28697 3.28697 h 6.092894 6.09288 z m -4.65126,2.42833 c -0.23692,-0.23371 -0.2992,-0.73977 -0.2992,-2.4311 0,-1.99429 0.0281,-2.15533 0.42317,-2.42833 0.46862,-0.32379 1.95657,-0.39032 2.678,-0.11974 0.43568,0.16341 0.46737,0.28233 0.59171,2.22069 0.0811,1.26368 0.0571,2.2406 -0.0624,2.55083 -0.1862,0.48312 -0.24936,0.50281 -1.61292,0.50281 -1.03625,0 -1.49986,-0.0796 -1.71834,-0.29516 z m 2.07709,-2.38138 0.0435,-1.26783 h -0.54348 c -0.54049,0 -0.54348,0.006 -0.54348,1.18957 0,1.29688 0.0847,1.48371 0.63496,1.40098 0.31304,-0.0471 0.37122,-0.23548 0.40851,-1.32272 z"
       id="path340" /></g></svg>
